<svg width="80" height="80" viewBox="0 0 80 80" fill="none" xmlns="http://www.w3.org/2000/svg">
<path fill-rule="evenodd" clip-rule="evenodd" d="M6.66675 40C6.66675 21.59 21.5901 6.66669 40.0001 6.66669C58.4101 6.66669 73.3334 21.59 73.3334 40C73.3334 58.41 58.4101 73.3334 40.0001 73.3334C21.5901 73.3334 6.66675 58.41 6.66675 40ZM40.0001 13.3334C32.9276 13.3334 26.1449 16.1429 21.1439 21.1438C16.1429 26.1448 13.3334 32.9276 13.3334 40C13.3334 47.0725 16.1429 53.8552 21.1439 58.8562C26.1449 63.8572 32.9276 66.6667 40.0001 66.6667C47.0725 66.6667 53.8553 63.8572 58.8563 58.8562C63.8572 53.8552 66.6667 47.0725 66.6667 40C66.6667 32.9276 63.8572 26.1448 58.8563 21.1438C53.8553 16.1429 47.0725 13.3334 40.0001 13.3334Z" fill="#587156"/>
<path fill-rule="evenodd" clip-rule="evenodd" d="M43.3333 23.3333C43.3333 22.4493 42.9821 21.6014 42.357 20.9763C41.7319 20.3512 40.8841 20 40 20C39.1159 20 38.2681 20.3512 37.643 20.9763C37.0179 21.6014 36.6667 22.4493 36.6667 23.3333V36.6667H23.3333C22.4493 36.6667 21.6014 37.0179 20.9763 37.643C20.3512 38.2681 20 39.1159 20 40C20 40.8841 20.3512 41.7319 20.9763 42.357C21.6014 42.9821 22.4493 43.3333 23.3333 43.3333H36.6667V56.6667C36.6667 57.5507 37.0179 58.3986 37.643 59.0237C38.2681 59.6488 39.1159 60 40 60C40.8841 60 41.7319 59.6488 42.357 59.0237C42.9821 58.3986 43.3333 57.5507 43.3333 56.6667V43.3333H56.6667C57.5507 43.3333 58.3986 42.9821 59.0237 42.357C59.6488 41.7319 60 40.8841 60 40C60 39.1159 59.6488 38.2681 59.0237 37.643C58.3986 37.0179 57.5507 36.6667 56.6667 36.6667H43.3333V23.3333Z" fill="#587156"/>
</svg>
