<svg width="24" height="24" viewBox="0 0 24 24" fill="none" xmlns="http://www.w3.org/2000/svg">
<path d="M4.83 14.93L14.93 4.82998C15.023 4.73625 15.1336 4.66186 15.2554 4.61109C15.3773 4.56032 15.508 4.53418 15.64 4.53418C15.772 4.53418 15.9027 4.56032 16.0246 4.61109C16.1464 4.66186 16.257 4.73625 16.35 4.82998L19.17 7.64998C19.2637 7.74294 19.3381 7.85354 19.3889 7.9754C19.4397 8.09726 19.4658 8.22797 19.4658 8.35998C19.4658 8.49199 19.4397 8.6227 19.3889 8.74455C19.3381 8.86641 19.2637 8.97701 19.17 9.06998L9.07 19.17C8.97738 19.2645 8.86694 19.3396 8.74506 19.3911C8.62319 19.4426 8.49231 19.4694 8.36 19.47H5.53C5.26478 19.47 5.01043 19.3646 4.82289 19.1771C4.63536 18.9895 4.53 18.7352 4.53 18.47V15.64C4.53055 15.5077 4.55735 15.3768 4.60884 15.2549C4.66034 15.133 4.73551 15.0226 4.83 14.93Z" stroke="#FAFBFF" stroke-width="1.5" stroke-linecap="round" stroke-linejoin="round"/>
<path d="M12.5 7.26001L16.74 11.5" stroke="#FAFBFF" stroke-width="1.5" stroke-linecap="round" stroke-linejoin="round"/>
</svg>
