<svg width="32" height="32" viewBox="0 0 32 32" fill="none" xmlns="http://www.w3.org/2000/svg">
<path d="M15.8 22.7271C19.6258 22.7271 22.7271 19.6258 22.7271 15.8C22.7271 11.9743 19.6258 8.87292 15.8 8.87292C11.9743 8.87292 8.87292 11.9743 8.87292 15.8C8.87292 19.6258 11.9743 22.7271 15.8 22.7271Z" fill="#33383D"/>
<path d="M15.8 27.0468C22.0266 27.0468 27.0468 21.9877 27.0468 15.8C27.0468 12.3365 25.4902 9.14532 22.8049 7.00492L20.7424 9.61232C22.6493 11.1301 23.7389 13.3872 23.7389 15.8C23.7389 20.1586 20.1975 23.7389 15.8 23.7389C11.4414 23.7389 7.86108 20.1975 7.86108 15.8C7.86108 11.4025 11.4414 7.86108 15.8 7.86108C16.1503 7.86108 16.5005 7.9 16.8507 7.93892L17.2788 4.63103C16.7729 4.5532 16.267 4.51428 15.7611 4.51428C9.53448 4.51428 4.51428 9.5734 4.51428 15.7611C4.5532 22.0266 9.5734 27.0468 15.8 27.0468Z" fill="#33383D"/>
<path d="M15.8 28.2921C12.9591 28.2921 10.3128 27.3581 8.09461 25.6069L6.03204 28.2143C8.83402 30.4325 12.2197 31.6 15.8 31.6C21.7153 31.6 27.0858 28.331 29.8099 23.1162L26.8912 21.5985C24.7119 25.7236 20.47 28.2921 15.8 28.2921Z" fill="#33383D"/>
<path d="M14.399 3.38572C14.866 3.3468 15.333 3.30788 15.8 3.30788C22.6882 3.30788 28.2921 8.91183 28.2921 15.8H31.6C31.6 7.08276 24.5173 0 15.8 0C15.2163 0 14.6325 0.0389166 14.0488 0.0778329C6.03202 0.972907 0 7.74434 0 15.8C0 17.5123 0.272414 19.1857 0.817242 20.7813L3.96946 19.7306C3.54138 18.4463 3.3468 17.1232 3.3468 15.7611C3.30788 9.41774 8.09459 4.08621 14.399 3.38572Z" fill="#33383D"/>
</svg>
