<svg width="107" height="40" viewBox="0 0 107 40" fill="none" xmlns="http://www.w3.org/2000/svg">
<path d="M6.50013 15.8688H0.389143V12.5683H20.9417V15.8688H14.8307V34H6.50013V15.8688ZM22.4118 26.7792C22.4118 25.9529 22.5415 25.1986 22.8009 24.5164C23.0603 23.8342 23.4159 23.2241 23.8675 22.686C24.3287 22.1383 24.8715 21.6627 25.4961 21.2592C26.1206 20.8556 26.798 20.5193 27.5283 20.2503C28.2585 19.9812 29.0224 19.7795 29.8199 19.6449C30.6174 19.5104 31.4245 19.4432 32.2412 19.4432C33.3174 19.4432 34.2927 19.5537 35.167 19.7747C36.051 19.986 36.8341 20.2791 37.5163 20.6538C38.2081 21.0286 38.8038 21.4657 39.3035 21.9654C39.8127 22.465 40.2307 22.9983 40.5574 23.5652C40.8937 24.1225 41.1387 24.699 41.2924 25.2947C41.4558 25.8904 41.5374 26.4718 41.5374 27.0387L30.6414 28.3502C30.8528 29.4168 31.2756 30.2431 31.9098 30.8292C32.5439 31.4153 33.4327 31.7084 34.5761 31.7084C35.2007 31.7084 35.782 31.6315 36.32 31.4778C36.8677 31.324 37.2953 31.1367 37.6028 30.9157L38.7558 32.9335C38.4003 33.116 38.0111 33.289 37.5884 33.4523C37.1752 33.6157 36.714 33.7598 36.2047 33.8847C35.7051 34 35.1478 34.0913 34.5329 34.1585C33.9275 34.2354 33.2597 34.2738 32.5295 34.2738C30.7808 34.2738 29.2722 34.0721 28.0039 33.6685C26.7356 33.2553 25.6835 32.7077 24.8475 32.0255C24.0212 31.3336 23.4062 30.5361 23.0027 29.6329C22.6087 28.7298 22.4118 27.7785 22.4118 26.7792ZM34.5473 25.5686C34.5473 24.3195 34.3887 23.4115 34.0717 22.8446C33.7642 22.2777 33.303 21.9942 32.688 21.9942C32.371 21.9942 32.0779 22.0711 31.8089 22.2248C31.5398 22.3785 31.3092 22.6188 31.1171 22.9454C30.9249 23.2721 30.7711 23.6949 30.6558 24.2138C30.5405 24.723 30.4781 25.3428 30.4685 26.073L34.5473 25.5686ZM43.2958 26.8513C43.2958 25.8808 43.4976 24.9488 43.9011 24.0552C44.3143 23.1616 44.934 22.3737 45.7604 21.6915C46.5867 21.0093 47.6292 20.4665 48.8879 20.0629C50.1562 19.6497 51.6456 19.4432 53.3559 19.4432C54.5858 19.4432 55.6379 19.5633 56.5123 19.8035C57.3866 20.0341 58.1025 20.3416 58.6598 20.7259C59.217 21.1102 59.6254 21.5474 59.8848 22.0374C60.1443 22.5275 60.274 23.0271 60.274 23.5364C60.274 23.9303 60.1827 24.305 60.0001 24.6606C59.8176 25.0161 59.5726 25.3332 59.2651 25.6118C58.9576 25.8808 58.5973 26.097 58.1841 26.2604C57.771 26.4237 57.3338 26.5054 56.8726 26.5054L53.2117 21.5042C52.9427 21.7444 52.6929 22.0278 52.4623 22.3545C52.2413 22.6812 52.0443 23.0559 51.8714 23.4787C51.708 23.8919 51.5783 24.3579 51.4822 24.8768C51.3957 25.386 51.3525 25.9481 51.3525 26.563C51.3525 27.4182 51.4582 28.1677 51.6696 28.8114C51.881 29.4552 52.1692 29.9933 52.5343 30.4256C52.8995 30.8484 53.3319 31.1703 53.8315 31.3913C54.3407 31.6027 54.8932 31.7084 55.489 31.7084C55.7772 31.7084 56.0655 31.6892 56.3537 31.6507C56.6516 31.6027 56.9302 31.545 57.1897 31.4778C57.4587 31.4009 57.7037 31.3144 57.9247 31.2183C58.1457 31.1223 58.3331 31.0214 58.4868 30.9157L59.6398 32.9335C59.2843 33.116 58.8952 33.289 58.4724 33.4523C58.0592 33.6157 57.598 33.7598 57.0888 33.8847C56.5891 34 56.0366 34.0913 55.4313 34.1585C54.826 34.2354 54.163 34.2738 53.4423 34.2738C51.7128 34.2738 50.2091 34.0721 48.9312 33.6685C47.6628 33.2553 46.6107 32.7077 45.7748 32.0255C44.9388 31.3433 44.3143 30.5554 43.9011 29.6618C43.4976 28.7682 43.2958 27.8314 43.2958 26.8513ZM63.0124 10.2046H70.8385V22.0086C71.9146 21.2303 73.0148 20.6106 74.139 20.1494C75.2728 19.6786 76.4595 19.4432 77.6989 19.4432C78.3619 19.4432 78.9769 19.5537 79.5438 19.7747C80.1203 19.9956 80.6199 20.3367 81.0427 20.798C81.4655 21.2592 81.797 21.8549 82.0372 22.5851C82.2774 23.3058 82.3975 24.1705 82.3975 25.1794V34H74.5714V24.6894C74.5714 24.1897 74.4609 23.8246 74.2399 23.594C74.0285 23.3634 73.6778 23.2481 73.1878 23.2481C72.9668 23.2481 72.7458 23.2817 72.5248 23.349C72.3134 23.4163 72.1068 23.5027 71.905 23.6084C71.7033 23.7141 71.5111 23.8342 71.3285 23.9688C71.146 24.1033 70.9826 24.2378 70.8385 24.3723V34H63.0124V10.2046ZM85.3665 26.8657C85.3665 25.7319 85.5971 24.7086 86.0583 23.7958C86.5291 22.883 87.2017 22.1047 88.0761 21.4609C88.9601 20.8172 90.0362 20.3223 91.3045 19.9764C92.5729 19.6209 94.0141 19.4432 95.6284 19.4432C97.2426 19.4432 98.6839 19.6209 99.9522 19.9764C101.22 20.3223 102.292 20.8172 103.166 21.4609C104.05 22.1047 104.723 22.883 105.184 23.7958C105.655 24.7086 105.89 25.7319 105.89 26.8657C105.89 27.9899 105.655 29.0084 105.184 29.9212C104.723 30.834 104.05 31.6123 103.166 32.2561C102.292 32.8998 101.22 33.3995 99.9522 33.755C98.6839 34.1009 97.2426 34.2738 95.6284 34.2738C94.0141 34.2738 92.5729 34.1009 91.3045 33.755C90.0362 33.3995 88.9601 32.8998 88.0761 32.2561C87.2017 31.6123 86.5291 30.834 86.0583 29.9212C85.5971 29.0084 85.3665 27.9899 85.3665 26.8657ZM95.6284 31.6363C95.9839 31.6363 96.301 31.5643 96.5796 31.4201C96.8582 31.276 97.0888 31.0262 97.2714 30.6707C97.454 30.3055 97.5933 29.8155 97.6894 29.2006C97.7855 28.5856 97.8335 27.8073 97.8335 26.8657C97.8335 25.9145 97.7855 25.1314 97.6894 24.5164C97.5933 23.9015 97.454 23.4163 97.2714 23.0607C97.0888 22.6956 96.8582 22.441 96.5796 22.2969C96.301 22.1527 95.9839 22.0807 95.6284 22.0807C95.2632 22.0807 94.9414 22.1527 94.6627 22.2969C94.3937 22.441 94.1679 22.6956 93.9853 23.0607C93.8027 23.4163 93.6634 23.9015 93.5673 24.5164C93.4713 25.1314 93.4232 25.9145 93.4232 26.8657C93.4232 27.8073 93.4713 28.5856 93.5673 29.2006C93.6634 29.8155 93.8027 30.3055 93.9853 30.6707C94.1679 31.0262 94.3937 31.276 94.6627 31.4201C94.9414 31.5643 95.2632 31.6363 95.6284 31.6363Z" fill="#587156"/>
<path d="M26.5782 6.0004C26.2215 5.14638 26.7298 4.17855 27.6354 3.98747L44.4471 0.440299C45.4562 0.227389 46.367 1.0887 46.2106 2.10809L44.2874 14.6491C44.1724 15.3989 43.5077 15.9394 42.7502 15.8991L31.3655 15.2935C30.7994 15.2634 30.3006 14.9117 30.0821 14.3886L26.5782 6.0004Z" fill="#587156"/>
<path d="M25.7035 16.9703L29.7959 11.6584L31.8952 14.7381L25.7035 16.9703Z" fill="#587156"/>
</svg>
