<svg width="40" height="40" viewBox="0 0 40 40" fill="none" xmlns="http://www.w3.org/2000/svg">
<rect width="40" height="40" rx="20" fill="#587156"/>
<path d="M7.87136 16.7917C7.25977 15.3804 8.10255 13.764 9.60987 13.4574L28.104 9.69588C29.7598 9.35912 31.2424 10.7794 30.9769 12.4481L28.92 25.3772C28.7256 26.599 27.6412 27.4775 26.4056 27.4142L13.6576 26.7604C12.739 26.7133 11.9264 26.1496 11.5607 25.3055L7.87136 16.7917Z" fill="#F3F3F3"/>
<path d="M6.45845 28.6858L11.3832 22.5239L13.9095 26.0964L6.45845 28.6858Z" fill="#F3F3F3"/>
<path d="M19.696 14.568C19.696 14.008 19.976 13.728 20.536 13.728C21.096 13.728 21.376 14.008 21.376 14.568V23.472C21.376 24.032 21.096 24.312 20.536 24.312C19.976 24.312 19.696 24.032 19.696 23.472V14.568ZM15.856 19.992C15.296 19.992 15.016 19.712 15.016 19.152C15.016 18.592 15.296 18.312 15.856 18.312H24.76C25.32 18.312 25.6 18.592 25.6 19.152C25.6 19.712 25.32 19.992 24.76 19.992H15.856ZM15.856 19.992C15.296 19.992 15.016 19.712 15.016 19.152C15.016 18.592 15.296 18.312 15.856 18.312H24.76C25.32 18.312 25.6 18.592 25.6 19.152C25.6 19.712 25.32 19.992 24.76 19.992H15.856Z" fill="#587156"/>
</svg>
