<svg width="40" height="40" viewBox="0 0 40 40" fill="none" xmlns="http://www.w3.org/2000/svg">
<rect width="40" height="40" rx="20" fill="#587156"/>
<path d="M28.4001 13.1024C28.4001 11.9024 27.0609 11.1884 26.0637 11.8568L15.8649 18.7052C15.6612 18.8419 15.4942 19.0265 15.3785 19.2427C15.2627 19.459 15.2017 19.7003 15.2009 19.9456C15.2001 20.1908 15.2594 20.4326 15.3737 20.6496C15.488 20.8666 15.6538 21.0523 15.8565 21.1904L26.0565 28.142C26.2819 28.2953 26.5449 28.3843 26.8171 28.3994C27.0893 28.4145 27.3604 28.3551 27.6014 28.2276C27.8424 28.1002 28.0441 27.9095 28.1848 27.676C28.3255 27.4425 28.4 27.175 28.4001 26.9024V13.1024ZM11.6001 12.2C11.6001 12.0409 11.6633 11.8883 11.7758 11.7757C11.8884 11.6632 12.041 11.6 12.2001 11.6C12.3592 11.6 12.5118 11.6632 12.6244 11.7757C12.7369 11.8883 12.8001 12.0409 12.8001 12.2V27.8C12.8001 27.9591 12.7369 28.1117 12.6244 28.2243C12.5118 28.3368 12.3592 28.4 12.2001 28.4C12.041 28.4 11.8884 28.3368 11.7758 28.2243C11.6633 28.1117 11.6001 27.9591 11.6001 27.8V12.2Z" fill="#F3F3F3"/>
</svg>
